<?xml version="1.0" encoding="UTF-8" standalone="no"?>
<!-- Created with Inkscape (http://www.inkscape.org/) -->

<svg
   width="200mm"
   height="200mm"
   viewBox="0 0 200 200"
   version="1.1"
   id="svg5"
   inkscape:version="1.1.1 (3bf5ae0d25, 2021-09-20)"
   sodipodi:docname="blueship_cool.svg"
   inkscape:export-filename="/home/razzi/Antimatter Tag/Assets/blueship_cool.png"
   inkscape:export-xdpi="96"
   inkscape:export-ydpi="96"
   xmlns:inkscape="http://www.inkscape.org/namespaces/inkscape"
   xmlns:sodipodi="http://sodipodi.sourceforge.net/DTD/sodipodi-0.dtd"
   xmlns="http://www.w3.org/2000/svg"
   xmlns:svg="http://www.w3.org/2000/svg">
  <sodipodi:namedview
     id="namedview7"
     pagecolor="#505050"
     bordercolor="#eeeeee"
     borderopacity="1"
     inkscape:pageshadow="0"
     inkscape:pageopacity="0"
     inkscape:pagecheckerboard="0"
     inkscape:document-units="mm"
     showgrid="false"
     fit-margin-top="0"
     fit-margin-left="0"
     fit-margin-right="0"
     fit-margin-bottom="0"
     inkscape:zoom="0.64052329"
     inkscape:cx="814.17805"
     inkscape:cy="520.66803"
     inkscape:window-width="1186"
     inkscape:window-height="681"
     inkscape:window-x="0"
     inkscape:window-y="0"
     inkscape:window-maximized="1"
     inkscape:current-layer="layer1" />
  <defs
     id="defs2">
    <filter
       inkscape:label="Invert"
       inkscape:menu-tooltip="Bright chrome effect"
       inkscape:menu="Non-Realistic 3D Shaders"
       height="1.1213535"
       y="-0.060676768"
       width="1.1349834"
       x="-0.067491679"
       style="color-interpolation-filters:sRGB;"
       id="filter1163">
      <feGaussianBlur
         stdDeviation="5"
         result="result8"
         in="SourceGraphic"
         id="feGaussianBlur1145" />
      <feComposite
         in2="result8"
         operator="xor"
         id="feComposite1147" />
      <feComposite
         k2="1"
         operator="arithmetic"
         result="result17"
         in2="result8"
         id="feComposite1149" />
      <feOffset
         result="result18"
         in="result17"
         id="feOffset1151" />
      <feDisplacementMap
         in2="result17"
         in="result18"
         xChannelSelector="A"
         yChannelSelector="A"
         scale="100"
         result="result4"
         id="feDisplacementMap1153" />
      <feComposite
         in2="result4"
         result="fbSourceGraphic"
         operator="arithmetic"
         in="result4"
         k1="1"
         k3="1"
         id="feComposite1155" />
      <feComposite
         in2="fbSourceGraphic"
         result="result9"
         operator="over"
         id="feComposite1157" />
      <feComposite
         in2="SourceGraphic"
         operator="in"
         result="result15"
         id="feComposite1159" />
      <feComposite
         result="fbSourceGraphic"
         in2="SourceGraphic"
         operator="in"
         in="result15"
         id="feComposite1161" />
      <feColorMatrix
         result="fbSourceGraphicAlpha"
         in="fbSourceGraphic"
         values="0 0 0 -1 0 0 0 0 -1 0 0 0 0 -1 0 0 0 0 1 0"
         id="feColorMatrix1543" />
      <feColorMatrix
         id="feColorMatrix1545"
         values="-1 0 0 0 1 0 -1 0 0 1 0 0 -1 0 1 -0.21 -0.72 -0.07 2 0 "
         result="color2"
         in="fbSourceGraphic" />
    </filter>
    <filter
       inkscape:label="Invert"
       inkscape:menu="Color"
       inkscape:menu-tooltip="Light areas turn to black"
       style="color-interpolation-filters:sRGB;"
       id="filter1191"
       x="0"
       y="0"
       width="1"
       height="1">
      <feColorMatrix
         type="luminanceToAlpha"
         result="result2"
         id="feColorMatrix1183" />
      <feComposite
         in2="SourceGraphic"
         operator="arithmetic"
         in="result2"
         k3="2"
         result="result4"
         id="feComposite1185" />
      <feBlend
         in="result4"
         mode="multiply"
         result="result3"
         in2="result2"
         id="feBlend1187" />
      <feComposite
         in2="SourceGraphic"
         operator="in"
         in="result3"
         id="feComposite1189"
         result="fbSourceGraphic" />
      <feColorMatrix
         result="fbSourceGraphicAlpha"
         in="fbSourceGraphic"
         values="0 0 0 -1 0 0 0 0 -1 0 0 0 0 -1 0 0 0 0 1 0"
         id="feColorMatrix1551" />
      <feColorMatrix
         id="feColorMatrix1553"
         values="-1 0 0 0 1 0 -1 0 0 1 0 0 -1 0 1 -0.21 -0.72 -0.07 2 0 "
         result="color2"
         in="fbSourceGraphic" />
    </filter>
    <filter
       style="color-interpolation-filters:sRGB;"
       inkscape:label="Invert"
       id="filter1549"
       x="0"
       y="0"
       width="1"
       height="1">
      <feColorMatrix
         values="-1 0 0 0 1 0 -1 0 0 1 0 0 -1 0 1 -0.21 -0.72 -0.07 2 0 "
         result="color2"
         id="feColorMatrix1547" />
    </filter>
    <filter
       style="color-interpolation-filters:sRGB;"
       inkscape:label="Invert"
       id="filter1557"
       x="0"
       y="0"
       width="1"
       height="1">
      <feColorMatrix
         values="-1 0 0 0 1 0 -1 0 0 1 0 0 -1 0 1 -0.21 -0.72 -0.07 2 0 "
         result="color2"
         id="feColorMatrix1555" />
    </filter>
    <filter
       style="color-interpolation-filters:sRGB;"
       inkscape:label="Invert"
       id="filter1561"
       x="0"
       y="0"
       width="1"
       height="1">
      <feColorMatrix
         values="-1 0 0 0 1 0 -1 0 0 1 0 0 -1 0 1 -0.21 -0.72 -0.07 2 0 "
         result="color2"
         id="feColorMatrix1559" />
    </filter>
  </defs>
  <g
     inkscape:label="Layer 1"
     inkscape:groupmode="layer"
     id="layer1"
     transform="translate(-24.740192,-54.176245)">
    <path
       style="fill:#000000;fill-opacity:1;fill-rule:nonzero;stroke:none;stroke-width:0.264583;filter:url(#filter1561)"
       id="path48"
       d="m 114.02236,65.126909 c -3.96302,-0.83982 -8.04783,-0.97304 -12.0817,-0.68799 -1.22654,0.0867 -2.446774,0.24688 -3.670162,0.37032 -5.762548,0.79733 -11.35576,2.55702 -16.541006,5.19856 -3.531124,1.79887 -4.792472,2.77395 -8.094348,4.96605 -7.112174,5.38142 -13.493321,11.71898 -19.22046,18.54723 -1.25295,1.49384 -2.445197,3.03757 -3.667797,4.55635 -4.981781,6.779321 -9.615358,13.900761 -13.216736,21.523591 -2.290834,4.84887 -2.792622,6.65752 -4.574969,11.67901 -0.501329,2.10815 -1.151532,4.18637 -1.503987,6.32445 -1.347893,8.17668 -0.794267,16.68271 1.39849,24.67087 2.584941,9.41688 4.891754,12.92075 9.306467,21.84025 2.447602,3.91401 4.753314,7.92041 7.342804,11.74203 9.838991,14.52055 21.455737,27.94892 34.790446,39.36673 2.556507,2.189 5.276778,4.17916 7.915166,6.26874 8.442842,5.52643 17.791612,12.19193 28.176182,13.1765 4.72768,0.44824 7.09105,-0.24637 11.80346,-0.9891 10.79224,-2.49477 21.14487,-6.59558 30.81528,-11.98671 6.77073,-3.77461 8.48703,-5.20697 14.77892,-9.6035 6.38795,-4.92238 12.41873,-10.37196 17.30272,-16.82857 1.59289,-2.1058 3.05502,-4.31309 4.42071,-6.57287 3.55189,-5.87723 4.5424,-8.6182 7.34635,-14.89196 0.94638,-2.76052 2.02245,-5.47994 2.83916,-8.28157 1.85675,-6.36942 2.92666,-12.29372 3.82454,-18.87357 0.98818,-7.24149 1.48659,-13.54169 1.7149,-20.84767 0.10356,-3.31376 0.0422,-6.63062 0.0633,-9.94592 -0.3736,-11.71318 -2.0463,-23.3923 -5.86039,-34.5029 -1.98946,-5.795401 -2.91891,-7.395171 -5.46529,-12.776611 -2.54657,-4.46505 -5.06902,-9.14649 -8.76762,-12.80626 -1.18595,-1.1735 -2.49211,-2.22596 -3.83296,-3.21878 -3.90482,-2.89129 -7.9173,-4.79187 -12.23779,-7.1366 -1.60481,-0.66966 -3.18655,-1.39754 -4.81444,-2.00896 -2.97594,-1.11775 -6.73289,-2.20225 -9.79085,-3.06719 -4.84387,-1.37009 -9.71994,-2.60258 -14.60873,-3.79952 -8.48544,-1.83976 -17.05669,-3.27209 -25.68539,-4.2327 -3.94186,-0.49605 -7.9045,-0.4659 -11.83703,0.0875 -2.03159,0.28588 -4.25486,0.75878 -6.26132,1.15777 -4.90909,0.99457 -9.78847,2.11644 -14.640851,3.35623 0,0 3.158749,2.17382 3.158749,2.17382 v 0 c 4.817261,-1.28767 9.672312,-2.41635 14.565592,-3.37975 2.1557,-0.41686 4.09053,-0.825 6.26441,-1.11524 3.90828,-0.52181 7.84307,-0.51878 11.75744,-0.0448 8.59048,0.93419 17.12415,2.34722 25.56486,4.20234 4.88345,1.19942 9.75575,2.4314 14.59307,3.80797 3.10384,0.88327 6.74202,1.94454 9.75935,3.09431 1.62007,0.61733 3.19323,1.35133 4.78984,2.027 2.82494,1.1568 2.41441,0.87284 6.05355,3.51836 1.33821,0.97283 2.64613,2.00049 3.83379,3.1523 3.75287,3.63962 6.33773,8.31217 8.93457,12.77698 2.6019,5.37848 3.55102,6.97366 5.58409,12.77468 3.88551,11.086651 5.61665,22.763361 6.03174,34.475021 -0.007,3.31645 0.0754,6.63429 -0.0207,9.94935 -0.21066,7.26707 -0.72665,13.59946 -1.73225,20.79817 -0.9074,6.49578 -2.02493,12.49369 -3.87754,18.78216 -0.82145,2.7883 -1.89864,5.49479 -2.84796,8.24218 -2.83262,6.31981 -3.75512,8.91078 -7.34706,14.82399 -5.63639,9.27885 -12.99616,16.77817 -21.61142,23.32398 -6.2222,4.36071 -8.01796,5.8584 -14.72947,9.58011 -9.69258,5.37479 -20.09108,9.41223 -30.92342,11.77965 -4.73097,0.6903 -7.04345,1.34573 -11.76827,0.86261 -4.31194,-0.4409 -7.31679,-1.62301 -11.31967,-3.29135 -1.23365,-0.51417 -2.46149,-1.06086 -3.61094,-1.74278 -2.51515,-1.49212 -4.909594,-3.17892 -7.364391,-4.76838 -2.674016,-2.09571 -5.43067,-4.09007 -8.022052,-6.28714 -13.422357,-11.37996 -25.120449,-24.78884 -34.973394,-39.35332 -2.57006,-3.79902 -4.850723,-7.78599 -7.276082,-11.67898 -4.345154,-8.85589 -6.614993,-12.3193 -9.132872,-21.66211 -2.135956,-7.92565 -2.6266,-16.34826 -1.268689,-24.44401 0.356167,-2.12344 1.002863,-4.1878 1.504293,-6.2817 1.777929,-5.04342 2.245376,-6.7743 4.541264,-11.64222 3.58712,-7.6057 8.207248,-14.70711 13.21286,-21.442801 1.224341,-1.51211 2.419273,-3.04851 3.67302,-4.53633 5.726094,-6.79513 12.100922,-13.10574 19.223926,-18.4315 3.295282,-2.17299 4.546354,-3.13728 8.072184,-4.91065 5.183957,-2.60736 10.774047,-4.32189 16.527763,-5.06009 1.22733,-0.11088 2.45191,-0.25802 3.68198,-0.33263 4.07489,-0.24717 8.19281,-0.0565 12.17663,0.87144 0,0 -3.14386,-2.38381 -3.14386,-2.38381 z" />
    <path
       style="fill:#000000;fill-opacity:1;fill-rule:nonzero;stroke:none;stroke-width:0.264583;filter:url(#filter1557)"
       id="path50"
       d="m 135.23013,161.1932 c -2.65253,0.95788 -5.3014,0.42459 -7.99557,-0.18799 -2.01877,-0.45902 -4.02361,-0.98788 -6.00083,-1.60172 -5.96769,-1.8527 -8.77104,-3.14371 -14.62535,-5.52347 -5.97916,-2.73314 -7.536726,-3.31985 -13.154701,-6.34533 -1.69451,-0.91256 -3.396017,-1.82095 -5.013166,-2.86448 -0.340365,-0.21963 -0.518914,-0.62555 -0.818253,-0.89847 -4.551407,-4.14962 -1.649045,-0.90098 -5.292437,-5.40568 -0.565406,-1.08692 -1.240438,-2.12351 -1.696225,-3.26077 -2.470753,-6.16489 -2.212787,-13.85935 -1.340723,-20.32312 0.241596,-1.79071 0.654267,-3.55415 0.981398,-5.33123 1.704911,-7.12309 4.263895,-12.234601 9.661898,-17.278481 3.080869,-2.87877 4.516159,-3.60045 8.002971,-5.86954 4.518888,-2.36274 9.776358,-5.02355 15.008608,-5.13668 3.94895,-0.0854 5.88391,0.68709 9.82735,1.63424 7.09063,2.06293 13.89254,5.02213 20.38841,8.51684 0.0208,0.0112 -0.0543,0.0473 -0.0354,0.0616 0.8223,0.61904 1.67243,1.20023 2.50865,1.80034 3.90229,3.25555 6.5409,7.582831 8.41905,12.257721 0.42772,1.06463 0.78134,2.15756 1.17201,3.23634 2.00502,6.30551 3.06626,12.8928 3.35038,19.49877 0.056,1.3012 0.0466,2.60438 0.0699,3.90658 -0.10448,4.32374 -0.54454,8.69169 -2.14215,12.74658 -0.86855,2.20449 -1.35971,2.89945 -2.5218,4.93809 -2.57723,3.67127 -5.52115,7.19932 -9.19149,9.83223 -0.57966,0.41581 -1.1983,0.7744 -1.79745,1.16159 -3.68996,2.09666 -7.93716,2.26541 -12.07269,2.44016 -1.98804,0.0514 -3.97764,0.0873 -5.9644,-0.0107 0,0 3.16578,2.31822 3.16578,2.31822 v 0 c 1.97266,0.0501 3.94589,0.005 5.91782,-0.0629 4.19051,-0.20588 8.48394,-0.40794 12.18724,-2.61076 0.60097,-0.4 1.2219,-0.77154 1.80292,-1.20001 3.66863,-2.70535 6.63206,-6.27047 9.24223,-9.97118 1.16716,-2.05762 1.67419,-2.78397 2.5471,-5.00785 1.61038,-4.10265 2.03571,-8.52239 2.13723,-12.89408 -0.023,-1.30878 -0.0138,-2.61853 -0.0689,-3.92636 -0.2789,-6.62457 -1.31798,-13.23139 -3.2672,-19.57282 -0.38161,-1.08448 -0.72591,-2.18282 -1.14482,-3.25345 -1.84728,-4.72121 -4.45634,-9.106471 -8.33415,-12.438681 -0.84478,-0.61497 -1.64905,-1.28984 -2.53433,-1.84492 -8.30739,-5.20881 -17.27361,-9.32425 -26.68407,-12.09559 -4.08015,-0.96525 -5.94684,-1.73099 -10.01864,-1.60544 -5.2997,0.16341 -10.473148,2.8958 -15.031432,5.31678 -1.365348,0.90019 -2.781898,1.72715 -4.096039,2.70057 -2.674651,1.98119 -5.381601,4.39083 -7.461853,7.00432 -3.21219,4.03558 -5.095129,8.721221 -6.220314,13.716321 -0.326652,1.78968 -0.735,3.56636 -0.979959,5.36904 -0.869606,6.3995 -1.22183,14.30418 1.11895,20.44338 0.44165,1.15832 1.107051,2.21845 1.660575,3.32768 0.75316,0.9552 1.416098,1.98903 2.259475,2.8656 2.845052,2.95701 6.651091,5.07482 10.067031,7.15571 5.757741,3.50746 11.902776,6.34404 18.058536,9.06415 5.92256,2.40278 8.72072,3.68575 14.75887,5.57317 2.02317,0.63241 4.07125,1.19148 6.13795,1.66253 2.83588,0.64636 5.58556,1.1547 8.36405,0.13184 0,0 -3.31215,-2.1586 -3.31215,-2.1586 z" />
    <path
       style="fill:#800000;stroke:none;stroke-width:0.413073;filter:url(#filter1191)"
       d="m 136.60564,161.86511 c -0.29369,-0.3004 -2.06648,-0.53057 -4.54381,-0.58996 -4.73492,-0.1135 -10.53302,-1.65989 -19.21894,-5.12581 -14.279757,-5.69801 -22.540978,-10.07256 -26.884838,-14.2363 -5.207738,-4.9918 -6.907683,-9.68068 -6.907683,-19.05314 0,-13.13063 3.664241,-23.371351 10.804297,-30.195561 6.055024,-5.78718 15.662224,-10.62404 22.241604,-11.19781 4.45169,-0.38822 12.11836,1.55165 21.06675,5.33045 10.42198,4.40106 14.09337,7.11697 17.84177,13.19843 6.95335,11.281221 9.5715,33.362781 5.29549,44.662251 -2.15278,5.68876 -8.99201,13.62708 -13.76459,15.97662 -3.00152,1.47764 -5.23543,1.94131 -5.93005,1.23083 z"
       id="path119" />
    <path
       style="fill:#000000;stroke-width:0.264583;filter:url(#filter1549)"
       id="path300"
       d="m 97.55797,55.710329 c -4.612542,1.10507 -8.603837,3.78025 -12.414679,6.49038 -5.342125,3.89843 -10.217546,8.36627 -14.877901,13.04443 -3.649237,3.76548 -6.935203,7.83116 -9.927238,12.13027 -1.793589,2.53833 -3.595727,5.07135 -5.561888,7.47974 -0.543156,0.71938 -1.140595,1.39416 -1.717591,2.08588 0,0 3.385392,2.029 3.385392,2.029 v 0 c 0.56479,-0.70038 1.147384,-1.38643 1.684811,-2.10854 1.950124,-2.43127 3.750495,-4.9742 5.526447,-7.53464 2.952771,-4.29376 6.181384,-8.37179 9.812184,-12.12023 4.647821,-4.66319 9.517988,-9.10923 14.854145,-12.98282 3.815754,-2.6746 7.832732,-5.32414 12.478988,-6.25174 0,0 -3.24267,-2.26173 -3.24267,-2.26173 z" />
    <path
       style="fill:#aa0000;stroke-width:0.413073;filter:url(#filter1163)"
       d="m 113.54203,251.53557 c -5.55746,-1.46728 -9.42025,-3.28211 -15.427797,-7.24837 C 86.757546,236.78937 71.58478,222.24324 61.142514,208.8424 47.226159,190.98318 38.203902,174.0382 35.181141,160.08353 c -1.346435,-6.21586 -1.320226,-17.42717 0.05374,-22.98663 2.224831,-9.00233 6.93878,-19.44952 12.850871,-28.48049 5.013695,-7.65861 6.920163,-10.018391 7.854349,-9.721891 0.750721,0.23827 2.368463,-1.72848 8.91345,-10.83643 0.68844,-0.95803 2.950964,-3.26886 5.027827,-5.13517 13.018039,-11.69827 25.09631,-16.51922 39.896192,-15.92427 3.2064,0.12889 6.27713,0.36883 6.82383,0.53318 1.32413,0.39807 0.89799,-0.23597 -1.07919,-1.60565 -2.2931,-1.58854 -7.9161,-2.18964 -14.52258,-1.55246 -6.093712,0.58772 -11.192191,1.88789 -17.163403,4.37685 -1.580785,0.65892 -0.155583,-0.70279 3.829868,-3.65923 3.942805,-2.92481 10.237089,-6.47844 11.474772,-6.47844 0.35324,0 1.135643,-0.27632 1.738673,-0.61404 1.86025,-1.04181 13.14998,-3.16484 18.10921,-3.40543 16.79814,-0.81495 57.98986,8.9893 68.11067,16.21136 3.92156,2.79837 6.75681,5.78497 9.67304,10.1894 7.79312,11.77011 12.91191,27.053011 14.70937,43.917041 0.83595,7.84303 0.59815,26.88945 -0.44095,35.3178 -2.18598,17.73078 -4.80882,27.08535 -11.17641,39.86161 -4.9718,9.97568 -10.38754,17.22841 -17.92294,24.00233 -12.90286,11.59898 -29.54857,20.86383 -45.98464,25.59462 -9.40795,2.70789 -16.83775,3.32044 -22.41486,1.84798 z m 29.53477,-87.12671 c 6.5051,-2.071 14.98522,-11.3433 17.35582,-18.97711 1.79274,-5.773 2.15448,-13.88402 1.01095,-22.668 -1.99612,-15.33323 -6.75404,-24.958751 -14.99975,-30.345271 -7.49941,-4.899 -20.06562,-10.38128 -28.75189,-12.54362 -7.79184,-1.93968 -13.057,-1.05833 -21.581622,3.6126 -4.745125,2.60002 -9.842511,6.64704 -12.553612,9.96682 -5.245737,6.42347 -8.219543,16.778431 -8.222826,28.632361 -0.0024,8.41731 1.921412,14.08821 6.196478,18.26627 6.311958,6.16873 28.703862,17.3456 43.549472,21.73764 3.26622,0.96631 3.29569,0.98668 1.47403,1.01912 l -1.85884,0.0331 1.44576,1.25154 1.44576,1.25152 6.40264,-0.19108 c 4.93458,-0.14727 7.01829,-0.38708 9.08763,-1.04589 z"
       id="path788" />
  </g>
</svg>
